# xmcd
#
# Track frame offsets:
#	183
#	11913
#	22270
#	35455
#	44770
#	58188
#	71830
#	83215
#	100343
#	114243
#	123793
#	137005
#	151513
#	163910
#	177050
#	191030
#
# Disc length: 2701 seconds
#
# Revision: 1
# Processed by: cddbd v1.5.1PL0 Copyright (c) Steve Scherf et al.
# Submitted via: audiograbber 1.83.01
#
DISCID=dc0a8b10
DTITLE=Il dizionario della canzone italiana - I balli sud americani
DYEAR=1900
DGENRE=
TTITLE0=Mina - La banda
TTITLE1=Mina - Folle banderuola
TTITLE2=Mina - Moliendo cafè
TTITLE3=Fred Bongusto - Malaga
TTITLE4=Fred Bongusto - Frida
TTITLE5=Renato Carosone - Torero
TTITLE6=Michelino - Cha cha cha della segretaria
TTITLE7=Renato Rascel - Dracula cha cha cha
TTITLE8=Renato Rascel - La samba di 90 anni fa
TTITLE9=Renato Rascel e T. Del Monaco - Cha cha a Pigalle
TTITLE10=Gianni Meccia e Jimmy Fontana - Cha cha dell'impiccato
TTITLE11=Rodolfo Clerici - A Capo Cabana
TTITLE12=Aldo Donà - La danza dello scoiattolo
TTITLE13=Oscar Carboni - Acquarello napoletano
TTITLE14=Nilla Pizzi e Luciano Benevene - Cocoricò
TTITLE15=Gigi Beccaria - Cica cica bum
EXTD=
EXTT0=
EXTT1=
EXTT2=
EXTT3=
EXTT4=
EXTT5=
EXTT6=
EXTT7=
EXTT8=
EXTT9=
EXTT10=
EXTT11=
EXTT12=
EXTT13=
EXTT14=
EXTT15=
PLAYORDER=
